<svg xmlns="http://www.w3.org/2000/svg" xmlns:xlink="http://www.w3.org/1999/xlink" width="500" zoomAndPan="magnify" viewBox="0 0 375 374.999991" height="500" preserveAspectRatio="xMidYMid meet" version="1.0"><defs><g/><clipPath id="2eb0cefbcc"><path d="M 232 112 L 306 112 L 306 173 L 232 173 Z M 232 112 " clip-rule="nonzero"/></clipPath><clipPath id="7df2fb6f1a"><path d="M 225.578125 146.570312 L 274.054688 91.324219 L 306.75 120.015625 L 258.273438 175.261719 Z M 225.578125 146.570312 " clip-rule="nonzero"/></clipPath><clipPath id="67ae819094"><path d="M 225.578125 146.570312 L 274.054688 91.324219 L 306.75 120.015625 L 258.273438 175.261719 Z M 225.578125 146.570312 " clip-rule="nonzero"/></clipPath><clipPath id="27e3c89156"><path d="M 126 180 L 286.453125 180 L 286.453125 262.167969 L 126 262.167969 Z M 126 180 " clip-rule="nonzero"/></clipPath><clipPath id="9b875b98fb"><path d="M 125.203125 157.917969 L 268 157.917969 L 268 223 L 125.203125 223 Z M 125.203125 157.917969 " clip-rule="nonzero"/></clipPath></defs><g clip-path="url(#2eb0cefbcc)"><g clip-path="url(#7df2fb6f1a)"><g clip-path="url(#67ae819094)"><path fill="#b9946e" d="M 289.789062 131.480469 C 290.980469 131.40625 291.894531 130.710938 292.847656 130.105469 C 296.296875 127.921875 299.03125 124.964844 301.71875 121.949219 C 302.621094 120.945312 303.511719 119.949219 304.4375 118.964844 C 304.597656 118.785156 304.769531 118.496094 305.09375 118.679688 C 305.480469 118.902344 305.390625 119.257812 305.25 119.558594 C 305.109375 119.855469 304.90625 120.132812 304.6875 120.382812 C 301.597656 123.925781 298.589844 127.535156 294.871094 130.488281 C 293.546875 131.539062 292.074219 132.34375 290.621094 133.171875 C 289.695312 133.695312 289.167969 134.253906 288.90625 135.402344 C 288.222656 138.296875 286.921875 140.949219 285.210938 143.40625 C 281.46875 148.773438 276.515625 152.671875 270.765625 155.660156 C 269.34375 156.410156 268.007812 157.335938 266.5 157.929688 C 265.644531 158.257812 265.308594 158.941406 265.03125 159.714844 C 263.839844 163.164062 262.335938 166.460938 260.347656 169.511719 C 259.5 170.824219 258.628906 172.136719 257.121094 172.914062 C 259.765625 168.660156 262.042969 164.246094 263.703125 159.230469 C 262.1875 159.597656 260.925781 159.890625 259.675781 160.210938 C 253.5625 161.800781 247.53125 161.640625 241.6875 158.992188 C 238.15625 157.386719 235.242188 155.054688 233.371094 151.53125 C 231.683594 148.375 231.800781 145.300781 233.601562 142.304688 C 234.933594 140.097656 236.535156 138.109375 239.011719 137.085938 C 240.019531 136.671875 240.269531 135.992188 240.433594 134.957031 C 241.171875 129.75 243.875 125.769531 248.554688 123.425781 C 253.171875 121.105469 258.234375 122.507812 261.554688 126.742188 C 264.996094 131.140625 266.699219 136.230469 267.234375 141.714844 C 267.675781 146.175781 267.558594 150.605469 266.472656 154.96875 C 266.417969 155.21875 266.445312 155.484375 266.429688 155.871094 C 268.675781 155.261719 270.5625 154.125 272.476562 153.023438 C 276.511719 150.675781 280.191406 147.886719 283.121094 144.226562 C 285.363281 141.417969 287.113281 138.363281 287.707031 134.769531 C 287.128906 134.300781 286.664062 134.671875 286.160156 134.808594 C 281.078125 136.28125 274.941406 134.355469 271.894531 130.359375 C 270.703125 128.796875 270.234375 127.125 270.980469 125.242188 C 271.125 124.871094 271.265625 124.433594 271.558594 124.191406 C 272.738281 123.191406 272.917969 121.953125 272.847656 120.449219 C 272.722656 117.785156 273.59375 115.414062 275.535156 113.519531 C 277.1875 111.914062 279.195312 111.578125 281.300781 112.585938 C 283.546875 113.65625 285.03125 115.5 286.125 117.636719 C 288.019531 121.359375 289.160156 125.296875 289.359375 129.484375 C 289.375 130.179688 289.273438 130.867188 289.789062 131.480469 Z M 244.820312 127.980469 C 243.175781 129.832031 242.160156 132.117188 241.929688 134.492188 C 241.796875 135.933594 241.820312 135.972656 243.253906 136.3125 C 245.550781 136.871094 247.042969 138.320312 247.941406 140.445312 C 248.171875 141.007812 248.339844 141.574219 248.179688 142.214844 C 247.640625 144.394531 245.570312 145.097656 243.621094 143.6875 C 242.125 142.613281 241.277344 141.074219 240.824219 139.335938 C 240.589844 138.429688 240.144531 138.339844 239.359375 138.6875 C 234.707031 140.65625 231.816406 146.15625 235.476562 151.339844 C 237.363281 154.015625 239.859375 155.949219 242.859375 157.222656 C 249.273438 159.933594 255.730469 159.585938 262.261719 157.726562 C 264.105469 157.207031 264.65625 156.210938 264.957031 154.539062 C 265.816406 149.71875 266.003906 144.910156 265.054688 140.082031 C 264.238281 135.867188 262.75 131.886719 259.976562 128.496094 C 255.839844 123.445312 249.042969 123.234375 244.820312 127.980469 Z M 273.292969 124.375 C 272.246094 124.855469 272.113281 125.539062 272.222656 126.332031 C 272.375 127.445312 272.886719 128.375 273.691406 129.160156 C 277.023438 132.445312 280.96875 133.691406 285.566406 132.886719 C 288.046875 132.449219 288.054688 132.511719 287.894531 129.957031 C 287.664062 126.339844 286.664062 122.90625 285.003906 119.691406 C 283.84375 117.453125 282.382812 115.394531 279.90625 114.378906 C 277.914062 113.570312 276.117188 114.191406 275.105469 116.058594 C 274.269531 117.582031 274.152344 119.238281 274.355469 120.957031 C 274.480469 121.964844 274.761719 122.46875 275.867188 122.679688 C 277.722656 123.027344 279.257812 124.035156 280.269531 125.683594 C 281.101562 127.035156 280.859375 128.460938 279.671875 129.515625 C 278.777344 130.308594 277.398438 130.15625 276.1875 129.074219 C 275.367188 128.332031 274.800781 127.417969 274.3125 126.429688 C 273.96875 125.789062 273.664062 125.121094 273.292969 124.375 Z M 242.484375 138.617188 C 242.902344 140.460938 243.804688 141.890625 245.539062 142.652344 C 246.222656 142.953125 246.605469 142.609375 246.460938 141.921875 C 246.128906 140.394531 244.296875 138.828125 242.484375 138.617188 Z M 275.429688 124.492188 C 276.066406 126.132812 276.773438 127.210938 277.929688 128.007812 C 278.269531 128.242188 278.660156 128.488281 279.023438 128.164062 C 279.34375 127.867188 279.300781 127.410156 279.074219 127.050781 C 278.308594 125.78125 277.175781 125.007812 275.429688 124.492188 Z M 275.429688 124.492188 " fill-opacity="1" fill-rule="nonzero"/></g></g></g><g clip-path="url(#27e3c89156)"><path fill="#1b1919" d="M 126 224.816406 C 126 224.816406 127.578125 208.035156 173.097656 223.734375 C 218.621094 239.4375 259.433594 215.773438 271.074219 180.441406 C 271.074219 180.441406 268.792969 192.828125 263.398438 201.570312 C 263.398438 201.570312 267.589844 205.992188 277.949219 200.59375 C 277.949219 200.59375 270.089844 207.5 261.171875 203.832031 C 261.171875 203.832031 270.8125 211.726562 282.585938 203.066406 C 282.585938 203.066406 274.507812 214.519531 257.625 207.613281 C 257.625 207.613281 268.21875 219.097656 284.433594 207.660156 C 284.433594 207.660156 271.019531 221.714844 256.601562 212.65625 C 256.601562 212.65625 269.292969 225.523438 285.582031 212.597656 C 285.582031 212.597656 274.117188 230.261719 252.644531 216.398438 C 252.644531 216.398438 266.210938 234.421875 286.265625 220.394531 C 286.265625 220.394531 272.542969 239.8125 246.277344 220.136719 C 246.277344 220.136719 256.847656 239.84375 279.691406 230.921875 C 279.691406 230.921875 258.816406 244.867188 242.46875 223.230469 C 242.46875 223.230469 248.707031 243.894531 273.707031 238.191406 C 273.707031 238.191406 252.875 249.3125 236.363281 226.082031 C 236.363281 226.082031 240.695312 244.308594 266.171875 244.382812 C 266.171875 244.382812 245.1875 250.589844 231.132812 229.277344 C 231.132812 229.277344 237.621094 248.308594 260.550781 248.949219 C 260.550781 248.949219 239.234375 254.371094 225.679688 232.199219 C 225.679688 232.199219 230.511719 251.222656 251.703125 252.597656 C 251.703125 252.597656 233.507812 255.9375 221.582031 234.097656 C 221.582031 234.097656 226.324219 252.363281 244.601562 255.429688 C 244.601562 255.429688 224.117188 256.039062 216.835938 237.425781 C 216.835938 237.425781 217.289062 251.425781 235.386719 258.625 C 235.386719 258.625 216.140625 257.699219 209.457031 235.742188 C 209.457031 235.742188 210.640625 251.785156 225.476562 259.199219 C 225.476562 259.199219 210.671875 256.550781 204.398438 239.285156 C 204.398438 239.285156 203.324219 254.011719 220.851562 262.148438 C 220.851562 262.148438 205.605469 261.890625 197.828125 238.714844 C 197.828125 238.714844 196.539062 254.335938 208.476562 260.878906 C 208.476562 260.878906 196.90625 259.324219 193.464844 242.355469 C 193.464844 242.355469 190.847656 253.710938 199.996094 261.53125 C 199.996094 261.53125 187.648438 258.917969 186.070312 236.824219 C 186.070312 236.824219 181.273438 247.84375 189.382812 258.210938 C 189.382812 258.210938 182.941406 255.214844 180.78125 241.921875 C 180.78125 241.921875 177.257812 249.199219 184.792969 258.730469 C 184.792969 258.730469 174.246094 254.753906 176.019531 235.558594 C 176.019531 235.558594 169.867188 248.980469 178.605469 257.53125 C 178.605469 257.53125 169.636719 254.382812 168.949219 236.484375 C 168.949219 236.484375 164.113281 246.832031 172.183594 255.425781 C 172.183594 255.425781 161.535156 252.433594 163.175781 231.339844 C 163.175781 231.339844 158.402344 241.035156 164.386719 251.625 C 164.386719 251.625 156.691406 247.941406 157.058594 229.488281 C 157.058594 229.488281 153.316406 236.738281 158.054688 246.535156 C 158.054688 246.535156 151.480469 241.640625 152.699219 226.707031 C 152.699219 226.707031 149.027344 230.089844 150.117188 236.628906 C 150.117188 236.628906 147.246094 231.234375 149.300781 224.25 C 149.300781 224.25 130.867188 215.246094 126 224.816406 " fill-opacity="1" fill-rule="nonzero"/></g><g clip-path="url(#9b875b98fb)"><path fill="#1b1919" d="M 125.363281 222.332031 C 125.363281 222.332031 127.464844 204.359375 174.113281 209.859375 C 220.761719 215.359375 232.25 207.671875 264.546875 157.914062 C 264.546875 157.914062 262.246094 174.414062 254.339844 186.230469 C 254.339844 186.230469 261.507812 179.921875 265.410156 170.09375 C 265.410156 170.09375 262.898438 179.160156 259.363281 184.648438 C 259.363281 184.648438 262.902344 181.949219 267.597656 170.597656 C 267.597656 170.597656 251.398438 232.339844 173.855469 219.382812 C 173.855469 219.382812 132.371094 208.085938 125.363281 222.332031 " fill-opacity="1" fill-rule="nonzero"/></g><g fill="#b9946e" fill-opacity="1"><g transform="translate(171.476474, 181.953245)"><g><path d="M 8.65625 -30.996094 C 9.066406 -32.875 4.695312 -32.550781 3.839844 -30.140625 C 0.488281 -20.871094 -2.492188 11.191406 5.636719 10.085938 C 7.800781 9.800781 10.699219 -6.492188 12.660156 -11.640625 C 12.660156 0.859375 13.070312 7.882812 18.5 8.371094 C 24.136719 8.863281 29.242188 -23.605469 31.652344 -35.613281 C 32.019531 -36.429688 30.546875 -36.878906 30.386719 -35.980469 C 26.710938 -16.949219 23.605469 3.757812 19.113281 6.941406 C 17.4375 8.128906 17.113281 -0.328125 19.5625 -18.625 C 19.808594 -20.378906 15.480469 -21.644531 13.558594 -18.253906 C 9.925781 -10.085938 6.78125 9.066406 5.511719 8.699219 C 2.492188 9.027344 6.25 -19.929688 8.65625 -30.996094 Z M 8.65625 -30.996094 "/></g></g></g><g fill="#b9946e" fill-opacity="1"><g transform="translate(201.084566, 181.953245)"><g><path d="M 4.65625 -29.8125 C 1.429688 -22.625 4.125 -23.074219 13.070312 -12.046875 C 17.355469 -6.78125 13.355469 7.148438 8.085938 8.738281 C -0.980469 11.515625 -2.246094 -4.492188 7.800781 -6.941406 C 8.578125 -7.351562 8.78125 -7.882812 7.921875 -7.921875 C -3.226562 -4.820312 -3.023438 12.128906 8.617188 9.433594 C 18.867188 7.066406 26.546875 -8.820312 17.480469 -17.765625 C 15.027344 -20.214844 3.144531 -25.320312 6.410156 -30.179688 C 9.269531 -35.367188 22.339844 -40.433594 24.382812 -29.242188 C 23.933594 -27.976562 25.238281 -28.300781 25.15625 -29.160156 C 24.175781 -40.59375 9.394531 -37.492188 4.65625 -29.8125 Z M 4.65625 -29.8125 "/></g></g></g><g fill="#000000" fill-opacity="1"><g transform="translate(141.053793, 262.081988)"><g><path d="M 9.625 3.6875 L 8.703125 5.21875 L 1.375 0.828125 L 8.546875 -11.140625 L 10.171875 -10.171875 L 3.921875 0.265625 Z M 9.625 3.6875 "/></g></g></g><g fill="#000000" fill-opacity="1"><g transform="translate(151.691319, 268.430727)"><g><path d="M 1.984375 0.90625 L 0.15625 0.078125 L 10.953125 -10.34375 L 12.734375 -9.53125 L 11.9375 5.421875 L 10.109375 4.59375 L 10.359375 1.015625 L 4.53125 -1.640625 Z M 11.109375 -8.375 C 10.742188 -7.957031 10.351562 -7.523438 9.9375 -7.078125 C 9.519531 -6.640625 9.09375 -6.203125 8.65625 -5.765625 L 5.796875 -2.890625 L 10.46875 -0.765625 L 10.75 -4.828125 C 10.8125 -5.691406 10.867188 -6.390625 10.921875 -6.921875 C 10.984375 -7.453125 11.046875 -7.9375 11.109375 -8.375 Z M 11.109375 -8.375 "/></g></g></g><g fill="#000000" fill-opacity="1"><g transform="translate(165.60888, 274.567299)"><g><path d="M 8.4375 -3.453125 L 5.46875 -5.25 C 4.632812 -5.738281 4.101562 -6.300781 3.875 -6.9375 C 3.644531 -7.582031 3.675781 -8.363281 3.96875 -9.28125 C 4.40625 -10.625 5.113281 -11.492188 6.09375 -11.890625 C 7.070312 -12.285156 8.367188 -12.222656 9.984375 -11.703125 C 10.671875 -11.484375 11.273438 -11.253906 11.796875 -11.015625 C 12.316406 -10.773438 12.789062 -10.515625 13.21875 -10.234375 L 12.6875 -8.59375 C 12.144531 -8.945312 11.609375 -9.234375 11.078125 -9.453125 C 10.554688 -9.679688 10.007812 -9.882812 9.4375 -10.0625 C 8.34375 -10.414062 7.523438 -10.503906 6.984375 -10.328125 C 6.453125 -10.148438 6.054688 -9.660156 5.796875 -8.859375 C 5.628906 -8.335938 5.601562 -7.914062 5.71875 -7.59375 C 5.84375 -7.269531 6.125 -6.972656 6.5625 -6.703125 L 9.53125 -4.921875 C 10.570312 -4.285156 11.203125 -3.664062 11.421875 -3.0625 C 11.640625 -2.457031 11.585938 -1.644531 11.265625 -0.625 C 10.796875 0.832031 10.085938 1.738281 9.140625 2.09375 C 8.191406 2.457031 6.894531 2.378906 5.25 1.859375 C 4.382812 1.578125 3.566406 1.253906 2.796875 0.890625 C 2.035156 0.535156 1.453125 0.1875 1.046875 -0.15625 L 1.59375 -1.84375 C 2.195312 -1.4375 2.851562 -1.0625 3.5625 -0.71875 C 4.28125 -0.375 5.019531 -0.078125 5.78125 0.171875 C 6.84375 0.503906 7.632812 0.582031 8.15625 0.40625 C 8.6875 0.238281 9.097656 -0.289062 9.390625 -1.1875 C 9.566406 -1.738281 9.585938 -2.171875 9.453125 -2.484375 C 9.328125 -2.796875 8.988281 -3.117188 8.4375 -3.453125 Z M 8.4375 -3.453125 "/></g></g></g><g fill="#000000" fill-opacity="1"><g transform="translate(178.149349, 278.556898)"><g><path d="M 3.4375 0.65625 L 1.578125 0.296875 L 4.203125 -13.40625 L 6.0625 -13.046875 L 4.9375 -7.15625 L 12.109375 -5.78125 L 13.234375 -11.671875 L 15.09375 -11.328125 L 12.46875 2.375 L 10.609375 2.03125 L 11.78125 -4.078125 L 4.609375 -5.453125 Z M 3.4375 0.65625 "/></g></g></g><g fill="#000000" fill-opacity="1"><g transform="translate(193.884285, 281.253239)"><g/></g></g><g fill="#000000" fill-opacity="1"><g transform="translate(199.235277, 281.873098)"><g><path d="M 7.140625 -5.6875 L 3.78125 -6.5625 C 2.84375 -6.800781 2.171875 -7.195312 1.765625 -7.75 C 1.367188 -8.300781 1.179688 -9.0625 1.203125 -10.03125 C 1.242188 -11.4375 1.675781 -12.460938 2.5 -13.109375 C 3.332031 -13.765625 4.597656 -14.070312 6.296875 -14.03125 C 7.015625 -14.019531 7.660156 -13.972656 8.234375 -13.890625 C 8.804688 -13.804688 9.335938 -13.691406 9.828125 -13.546875 L 9.78125 -11.828125 C 9.15625 -11.992188 8.554688 -12.113281 7.984375 -12.1875 C 7.421875 -12.257812 6.835938 -12.300781 6.234375 -12.3125 C 5.085938 -12.34375 4.28125 -12.195312 3.8125 -11.875 C 3.351562 -11.550781 3.113281 -10.96875 3.09375 -10.125 C 3.070312 -9.582031 3.164062 -9.171875 3.375 -8.890625 C 3.582031 -8.617188 3.929688 -8.414062 4.421875 -8.28125 L 7.765625 -7.40625 C 8.953125 -7.09375 9.734375 -6.675781 10.109375 -6.15625 C 10.484375 -5.632812 10.660156 -4.835938 10.640625 -3.765625 C 10.597656 -2.234375 10.171875 -1.160156 9.359375 -0.546875 C 8.554688 0.0664062 7.289062 0.351562 5.5625 0.3125 C 4.65625 0.289062 3.78125 0.210938 2.9375 0.078125 C 2.101562 -0.0546875 1.445312 -0.226562 0.96875 -0.4375 L 1.015625 -2.21875 C 1.703125 -2 2.4375 -1.820312 3.21875 -1.6875 C 4.007812 -1.5625 4.804688 -1.488281 5.609375 -1.46875 C 6.722656 -1.4375 7.503906 -1.578125 7.953125 -1.890625 C 8.410156 -2.203125 8.65625 -2.828125 8.6875 -3.765625 C 8.695312 -4.347656 8.59375 -4.769531 8.375 -5.03125 C 8.164062 -5.300781 7.753906 -5.519531 7.140625 -5.6875 Z M 7.140625 -5.6875 "/></g></g></g><g fill="#000000" fill-opacity="1"><g transform="translate(212.302773, 282.121793)"><g><path d="M 10.265625 -14.875 L 10.40625 -13.171875 L 5.796875 -12.78125 L 6.828125 -0.578125 L 4.953125 -0.421875 L 3.921875 -12.625 L -0.703125 -12.234375 L -0.84375 -13.9375 Z M 10.265625 -14.875 "/></g></g></g><g fill="#000000" fill-opacity="1"><g transform="translate(226.02283, 280.908263)"><g><path d="M 9.359375 -7.640625 L 7.625 -15.859375 L 9.484375 -16.25 L 11.21875 -8.03125 C 11.613281 -6.113281 11.457031 -4.601562 10.75 -3.5 C 10.050781 -2.40625 8.765625 -1.660156 6.890625 -1.265625 C 5.003906 -0.867188 3.535156 -1.023438 2.484375 -1.734375 C 1.429688 -2.441406 0.703125 -3.773438 0.296875 -5.734375 L -1.4375 -13.953125 L 0.40625 -14.34375 L 2.140625 -6.125 C 2.441406 -4.6875 2.914062 -3.738281 3.5625 -3.28125 C 4.21875 -2.832031 5.207031 -2.742188 6.53125 -3.015625 C 7.875 -3.296875 8.753906 -3.773438 9.171875 -4.453125 C 9.597656 -5.140625 9.660156 -6.203125 9.359375 -7.640625 Z M 9.359375 -7.640625 "/></g></g></g><g fill="#000000" fill-opacity="1"><g transform="translate(241.744221, 277.447108)"><g><path d="M 5.34375 -1.875 L 1.515625 -0.53125 L -3.109375 -13.703125 L 0.71875 -15.046875 C 2.0625 -15.515625 3.164062 -15.773438 4.03125 -15.828125 C 4.90625 -15.890625 5.664062 -15.753906 6.3125 -15.421875 C 6.957031 -15.109375 7.535156 -14.570312 8.046875 -13.8125 C 8.554688 -13.050781 9.039062 -12.023438 9.5 -10.734375 C 10.300781 -8.453125 10.375 -6.601562 9.71875 -5.1875 C 9.070312 -3.769531 7.613281 -2.664062 5.34375 -1.875 Z M 5.421875 -13.671875 C 4.960938 -13.941406 4.414062 -14.0625 3.78125 -14.03125 C 3.144531 -14 2.3125 -13.800781 1.28125 -13.4375 L -0.765625 -12.71875 L 2.703125 -2.84375 L 4.75 -3.5625 C 6.488281 -4.164062 7.566406 -4.957031 7.984375 -5.9375 C 8.398438 -6.914062 8.296875 -8.300781 7.671875 -10.09375 C 7.316406 -11.09375 6.957031 -11.875 6.59375 -12.4375 C 6.238281 -13.007812 5.847656 -13.421875 5.421875 -13.671875 Z M 5.421875 -13.671875 "/></g></g></g><g fill="#000000" fill-opacity="1"><g transform="translate(255.978102, 272.170576)"><g><path d="M -2.609375 -14.140625 L 3.1875 -1.453125 L 1.46875 -0.671875 L -4.328125 -13.359375 Z M -2.609375 -14.140625 "/></g></g></g><g fill="#000000" fill-opacity="1"><g transform="translate(262.255834, 269.459809)"><g><path d="M 8.15625 -12.796875 C 9.425781 -10.597656 9.914062 -8.765625 9.625 -7.296875 C 9.34375 -5.835938 8.25 -4.554688 6.34375 -3.453125 C 4.300781 -2.273438 2.628906 -1.914062 1.328125 -2.375 C 0.0234375 -2.84375 -1.296875 -4.242188 -2.640625 -6.578125 C -3.898438 -8.765625 -4.382812 -10.59375 -4.09375 -12.0625 C -3.8125 -13.53125 -2.71875 -14.8125 -0.8125 -15.90625 C 1.238281 -17.09375 2.910156 -17.453125 4.203125 -16.984375 C 5.492188 -16.523438 6.8125 -15.128906 8.15625 -12.796875 Z M 1.609375 -4.359375 C 2.117188 -4.078125 2.660156 -3.984375 3.234375 -4.078125 C 3.816406 -4.171875 4.5625 -4.476562 5.46875 -5 C 6.894531 -5.820312 7.671875 -6.726562 7.796875 -7.71875 C 7.929688 -8.71875 7.492188 -10.09375 6.484375 -11.84375 C 5.972656 -12.71875 5.507812 -13.40625 5.09375 -13.90625 C 4.6875 -14.414062 4.289062 -14.785156 3.90625 -15.015625 C 3.40625 -15.328125 2.867188 -15.4375 2.296875 -15.34375 C 1.722656 -15.257812 0.972656 -14.945312 0.046875 -14.40625 C -1.390625 -13.582031 -2.171875 -12.671875 -2.296875 -11.671875 C -2.429688 -10.671875 -1.988281 -9.289062 -0.96875 -7.53125 C -0.46875 -6.65625 -0.015625 -5.960938 0.390625 -5.453125 C 0.804688 -4.953125 1.210938 -4.585938 1.609375 -4.359375 Z M 1.609375 -4.359375 "/></g></g></g></svg>